# xmcd
#
# Track frame offsets: 
#        150
#        7111
#        21333
#        38294
#        51995
#        67863
#        83143
#        95178
#        111193
#        127340
#        141216
#        158733
#
# Disc length: 2306 seconds
#
# Revision: 0
# Processed by: cddbd v1.5.2PL0 Copyright (c) Steve Scherf et al.
# Submitted via: ExactAudioCopy v1.0b3
#
DISCID=a109000c
DTITLE=Wolf Schubert-K. - Sacred Blues
DYEAR=2006
DGENRE=Blues
TTITLE0=Promoter blues #1
TTITLE1=Could it be
TTITLE2=All my tears
TTITLE3=Pale moon
TTITLE4=The damage #2
TTITLE5=Aimlessly
TTITLE6=Terrifying view
TTITLE7=Rest in the arms of angels
TTITLE8=Wolf Schubert-K., Robert Lyng - Your cheating heart (Duet)
TTITLE9=Let it shine
TTITLE10=Sacred blues
TTITLE11=Last night the taco stand burned down
EXTD=
EXTT0=
EXTT1=
EXTT2=
EXTT3=
EXTT4=
EXTT5=
EXTT6=
EXTT7=
EXTT8=
EXTT9=
EXTT10=
EXTT11=
PLAYORDER=
